# xmcd
#
# Track frame offsets:
# 150
# 18537
# 36654
# 50708
# 65004
# 85061
# 106944
# 124157
# 143759
# 165971
# 179696
# 198016
# 215311
#
# Disc length: 3074 seconds
#
#
# Revision: 1
# Processed by: cddbd v1.5.1PL0 Copyright (c) Steve Scherf et al.
# Submitted via: FreeRIP 2.92 
#
DISCID=b80c000d
DTITLE=Chica de Cidra - Louca Paixão
DYEAR=2001
DGENRE=Ballad
TTITLE0=Doce Ilusão
TTITLE1=As Dores do Mundo
TTITLE2=Acontece
TTITLE3=Pele Canela
TTITLE4=Louca Paixão
TTITLE5=Te Cuida Coração
TTITLE6=Mãe Preta
TTITLE7=Segundas Intenções
TTITLE8=Ausência
TTITLE9=Canção de Março
TTITLE10=Céu Neon
TTITLE11=Nação Negra
TTITLE12=Vem Timbalar
EXTD=
EXTT0=
EXTT1=
EXTT2=
EXTT3=
EXTT4=
EXTT5=
EXTT6=
EXTT7=
EXTT8=
EXTT9=
EXTT10=
EXTT11=
EXTT12=
PLAYORDER=
